<svg width="256" height="256" viewBox="0 0 256 256" fill="none" xmlns="http://www.w3.org/2000/svg">
<g clip-path="url(#clip0_2014_66)">
<path d="M128 0C198.692 0 256 57.3076 256 128C256 198.692 198.692 256 128 256C57.3076 256 0 198.692 0 128C0 57.3076 57.3076 0 128 0ZM235.447 94.1523C216.577 75.2824 185.981 75.2823 167.111 94.1523C165.975 95.2891 164.103 95.2897 162.967 94.1533C144.097 75.2834 113.502 75.2835 94.6318 94.1533C93.4954 95.2899 91.6238 95.2898 90.4873 94.1533C71.6171 75.2834 41.0224 75.2833 22.1523 94.1533C3.28243 113.023 3.28256 143.618 22.1523 162.488C26.637 166.973 31.7845 170.391 37.2792 172.743C40.107 173.954 42.8701 171.269 42.5076 168.214C40.8227 154.017 45.4263 139.216 56.3203 128.321C62.0767 122.565 68.9239 118.565 76.1966 116.321C79.0137 115.452 81.466 118.151 81.0256 121.066C78.8113 135.723 83.346 151.202 94.6318 162.488C99.1163 166.973 104.264 170.392 109.759 172.744C112.586 173.955 115.35 171.27 114.987 168.215C113.302 154.018 117.905 139.216 128.799 128.321C134.555 122.565 141.404 118.564 148.677 116.32C151.494 115.451 153.946 118.15 153.506 121.065C151.292 135.722 155.826 151.201 167.111 162.487C171.596 166.972 176.744 170.39 182.239 172.742C185.066 173.953 187.83 171.268 187.467 168.213C185.782 154.016 190.385 139.215 201.279 128.32C212.174 117.426 226.976 112.822 241.174 114.507C244.228 114.869 246.914 112.106 245.703 109.278C243.35 103.784 239.932 98.637 235.447 94.1523Z" fill="white"/>
</g>
<defs>
<clipPath id="clip0_2014_66">
<rect width="256" height="256" rx="3" fill="white"/>
</clipPath>
</defs>
</svg>
